<svg id="eTWBJH4aKYe1" xmlns="http://www.w3.org/2000/svg" xmlns:xlink="http://www.w3.org/1999/xlink" viewBox="0 0 1920 1080" shape-rendering="geometricPrecision" text-rendering="geometricPrecision" project-id="2b6a65d8349a478e9ff68892d053113d" export-id="583263e2e422483caea9724ddb4b1ab9" cached="false"><rect width="1921.25" height="1045" rx="0" ry="0" transform="matrix(.967468 0 0 0.967468 31.251053 34.49797)" fill="none" stroke="#000" stroke-width="3"/><g transform="matrix(-1 0 0-1 1920.812066 1079.999969)"><rect width="231.560318" height="437.705479" rx="0" ry="0" transform="translate(31.251053 321.147261)" fill="none" stroke="#000" stroke-width="3"/><rect width="104.928571" height="224.165582" rx="0" ry="0" transform="translate(31.251053 427.917209)" fill="none" stroke="#000" stroke-width="3"/><ellipse rx="7.5" ry="7.5" transform="translate(195.468216 545.87599)" fill="#0c0c0c" stroke-width="3"/><path d="M263.164111,427.917209c108.744506,54.266749,92.651779,166.101959,0,224.165582" fill="none" stroke="#0b0b0b" stroke-width="3"/></g><g transform="translate(0 0.000001)"><rect width="231.560318" height="437.705479" rx="0" ry="0" transform="translate(31.251053 321.147261)" fill="none" stroke="#000" stroke-width="3"/><rect width="104.928571" height="224.165582" rx="0" ry="0" transform="translate(31.251053 427.917209)" fill="none" stroke="#000" stroke-width="3"/><ellipse rx="7.5" ry="7.5" transform="translate(195.709193 534.123978)" fill="#0c0c0c" stroke-width="3"/><path d="M263.164111,427.917209c108.744506,54.266749,92.651779,166.101959,0,224.165582" fill="none" stroke="#0b0b0b" stroke-width="3"/></g><path d="M57.078048,34.49797c1.571038,14.140238-7.594295,29.707036-25.826995,25.252921" transform="translate(-.251053-.49797)" fill="none" stroke="#060606" stroke-width="3"/><path d="M56.826995,1045.516976c6.249954-17.6085-4.795473-32.274403-26.073379-26.073378" fill="none" stroke="#060606" stroke-width="3"/><path d="M57.078048,34.49797c1.571038,14.140238-7.594295,29.707036-25.826995,25.252921" transform="matrix(0 1-1 0 1926.061257 2.574078)" fill="none" stroke="#060606" stroke-width="3"/><path d="M57.078048,34.49797c1.571038,14.140238-7.594295,29.707036-25.826995,25.252921" transform="matrix(-1 0 0-1 1922.487181 1080.887472)" fill="none" stroke="#060606" stroke-width="3"/><line x1="0" y1="-505.83845" x2="0" y2="505.83845" transform="translate(960 539)" fill="none" stroke="#000" stroke-width="3"/><ellipse rx="10" ry="10" transform="translate(960 534.123979)" fill="#0c0c0c" stroke-width="3"/><ellipse rx="168.5" ry="168.5" transform="translate(960.875989 534.123979)" fill="none" stroke="#000" stroke-width="3"/></svg>
